<svg xmlns="http://www.w3.org/2000/svg"
    xmlns:xlink="http://www.w3.org/1999/xlink" width="1080" zoomAndPan="magnify" viewBox="0 0 810 809.999993" height="1080" preserveAspectRatio="xMidYMid meet" version="1.0">
    <defs>
        <g/>
    </defs>
    <g fill="#000000" fill-opacity="1">
        <g transform="translate(97.44374, 434.624998)">
            <g>
                <path d="M 17.328125 0 L 7.234375 0 L 7.234375 -55.6875 L 21.640625 -55.6875 L 35.71875 -14.734375 L 36.53125 -14.734375 L 50.546875 -55.6875 L 64.59375 -55.6875 L 64.59375 0 L 54.15625 0 L 54.15625 -36.796875 L 53.203125 -36.9375 L 40.328125 0 L 31.15625 0 L 18.28125 -36.9375 L 17.328125 -36.796875 Z M 17.328125 0 "/>
            </g>
        </g>
        <g transform="translate(169.311901, 434.624998)">
            <g>
                <path d="M 24.40625 0.796875 C 20.300781 0.796875 16.691406 -0.046875 13.578125 -1.734375 C 10.460938 -3.421875 8.046875 -5.894531 6.328125 -9.15625 C 4.617188 -12.414062 3.765625 -16.359375 3.765625 -20.984375 C 3.765625 -25.609375 4.617188 -29.554688 6.328125 -32.828125 C 8.046875 -36.109375 10.460938 -38.59375 13.578125 -40.28125 C 16.691406 -41.96875 20.300781 -42.8125 24.40625 -42.8125 C 28.519531 -42.8125 32.132812 -41.96875 35.25 -40.28125 C 38.363281 -38.59375 40.78125 -36.109375 42.5 -32.828125 C 44.226562 -29.554688 45.09375 -25.609375 45.09375 -20.984375 C 45.09375 -16.359375 44.226562 -12.414062 42.5 -9.15625 C 40.78125 -5.894531 38.363281 -3.421875 35.25 -1.734375 C 32.132812 -0.046875 28.519531 0.796875 24.40625 0.796875 Z M 24.40625 -8.15625 C 30.9375 -8.15625 34.203125 -12.429688 34.203125 -20.984375 C 34.203125 -25.429688 33.363281 -28.6875 31.6875 -30.75 C 30.007812 -32.820312 27.582031 -33.859375 24.40625 -33.859375 C 17.882812 -33.859375 14.625 -29.566406 14.625 -20.984375 C 14.625 -12.429688 17.882812 -8.15625 24.40625 -8.15625 Z M 24.40625 -8.15625 "/>
            </g>
        </g>
        <g transform="translate(218.13807, 434.624998)">
            <g>
                <path d="M 6.0625 0 L 6.0625 -42.015625 L 16.296875 -42.015625 L 16.296875 -35.765625 L 17.09375 -35.609375 C 18.113281 -37.941406 19.445312 -39.65625 21.09375 -40.75 C 22.75 -41.84375 24.757812 -42.390625 27.125 -42.390625 C 29.507812 -42.390625 31.320312 -41.984375 32.5625 -41.171875 L 30.78125 -32.0625 L 29.96875 -31.921875 C 29.289062 -32.191406 28.632812 -32.390625 28 -32.515625 C 27.363281 -32.648438 26.585938 -32.71875 25.671875 -32.71875 C 22.722656 -32.71875 20.472656 -31.679688 18.921875 -29.609375 C 17.378906 -27.546875 16.609375 -24.226562 16.609375 -19.65625 L 16.609375 0 Z M 6.0625 0 "/>
            </g>
        </g>
        <g transform="translate(251.082404, 434.624998)">
            <g>
                <path d="M 41.515625 -18.625 L 14.515625 -18.625 C 14.816406 -14.96875 15.851562 -12.304688 17.625 -10.640625 C 19.40625 -8.984375 21.832031 -8.15625 24.90625 -8.15625 C 27.320312 -8.15625 29.273438 -8.601562 30.765625 -9.5 C 32.265625 -10.40625 33.472656 -11.769531 34.390625 -13.59375 L 35.1875 -13.59375 L 42.203125 -9.109375 C 40.828125 -6.160156 38.753906 -3.769531 35.984375 -1.9375 C 33.222656 -0.113281 29.53125 0.796875 24.90625 0.796875 C 20.5625 0.796875 16.804688 -0.0234375 13.640625 -1.671875 C 10.484375 -3.328125 8.046875 -5.785156 6.328125 -9.046875 C 4.617188 -12.304688 3.765625 -16.285156 3.765625 -20.984375 C 3.765625 -25.753906 4.664062 -29.773438 6.46875 -33.046875 C 8.269531 -36.328125 10.707031 -38.773438 13.78125 -40.390625 C 16.851562 -42.003906 20.304688 -42.8125 24.140625 -42.8125 C 30.085938 -42.8125 34.640625 -41.234375 37.796875 -38.078125 C 40.960938 -34.929688 42.546875 -30.3125 42.546875 -24.21875 C 42.546875 -22.007812 42.46875 -20.296875 42.3125 -19.078125 Z M 32.453125 -25.4375 C 32.347656 -28.632812 31.601562 -30.960938 30.21875 -32.421875 C 28.832031 -33.890625 26.804688 -34.625 24.140625 -34.625 C 18.816406 -34.625 15.679688 -31.5625 14.734375 -25.4375 Z M 32.453125 -25.4375 "/>
            </g>
        </g>
        <g transform="translate(296.747441, 434.624998)">
            <g>
                <path d="M 17.328125 0 L 7.234375 0 L 7.234375 -55.6875 L 21.640625 -55.6875 L 35.71875 -14.734375 L 36.53125 -14.734375 L 50.546875 -55.6875 L 64.59375 -55.6875 L 64.59375 0 L 54.15625 0 L 54.15625 -36.796875 L 53.203125 -36.9375 L 40.328125 0 L 31.15625 0 L 18.28125 -36.9375 L 17.328125 -36.796875 Z M 17.328125 0 "/>
            </g>
        </g>
        <g transform="translate(368.615602, 434.624998)">
            <g>
                <path d="M 24.40625 0.796875 C 20.300781 0.796875 16.691406 -0.046875 13.578125 -1.734375 C 10.460938 -3.421875 8.046875 -5.894531 6.328125 -9.15625 C 4.617188 -12.414062 3.765625 -16.359375 3.765625 -20.984375 C 3.765625 -25.609375 4.617188 -29.554688 6.328125 -32.828125 C 8.046875 -36.109375 10.460938 -38.59375 13.578125 -40.28125 C 16.691406 -41.96875 20.300781 -42.8125 24.40625 -42.8125 C 28.519531 -42.8125 32.132812 -41.96875 35.25 -40.28125 C 38.363281 -38.59375 40.78125 -36.109375 42.5 -32.828125 C 44.226562 -29.554688 45.09375 -25.609375 45.09375 -20.984375 C 45.09375 -16.359375 44.226562 -12.414062 42.5 -9.15625 C 40.78125 -5.894531 38.363281 -3.421875 35.25 -1.734375 C 32.132812 -0.046875 28.519531 0.796875 24.40625 0.796875 Z M 24.40625 -8.15625 C 30.9375 -8.15625 34.203125 -12.429688 34.203125 -20.984375 C 34.203125 -25.429688 33.363281 -28.6875 31.6875 -30.75 C 30.007812 -32.820312 27.582031 -33.859375 24.40625 -33.859375 C 17.882812 -33.859375 14.625 -29.566406 14.625 -20.984375 C 14.625 -12.429688 17.882812 -8.15625 24.40625 -8.15625 Z M 24.40625 -8.15625 "/>
            </g>
        </g>
        <g transform="translate(417.441771, 434.624998)">
            <g>
                <path d="M 6.0625 0 L 6.0625 -42.015625 L 16.296875 -42.015625 L 16.296875 -35.765625 L 17.09375 -35.609375 C 18.113281 -37.941406 19.445312 -39.65625 21.09375 -40.75 C 22.75 -41.84375 24.757812 -42.390625 27.125 -42.390625 C 29.507812 -42.390625 31.320312 -41.984375 32.5625 -41.171875 L 30.78125 -32.0625 L 29.96875 -31.921875 C 29.289062 -32.191406 28.632812 -32.390625 28 -32.515625 C 27.363281 -32.648438 26.585938 -32.71875 25.671875 -32.71875 C 22.722656 -32.71875 20.472656 -31.679688 18.921875 -29.609375 C 17.378906 -27.546875 16.609375 -24.226562 16.609375 -19.65625 L 16.609375 0 Z M 6.0625 0 "/>
            </g>
        </g>
        <g transform="translate(450.386105, 434.624998)">
            <g>
                <path d="M 41.515625 -18.625 L 14.515625 -18.625 C 14.816406 -14.96875 15.851562 -12.304688 17.625 -10.640625 C 19.40625 -8.984375 21.832031 -8.15625 24.90625 -8.15625 C 27.320312 -8.15625 29.273438 -8.601562 30.765625 -9.5 C 32.265625 -10.40625 33.472656 -11.769531 34.390625 -13.59375 L 35.1875 -13.59375 L 42.203125 -9.109375 C 40.828125 -6.160156 38.753906 -3.769531 35.984375 -1.9375 C 33.222656 -0.113281 29.53125 0.796875 24.90625 0.796875 C 20.5625 0.796875 16.804688 -0.0234375 13.640625 -1.671875 C 10.484375 -3.328125 8.046875 -5.785156 6.328125 -9.046875 C 4.617188 -12.304688 3.765625 -16.285156 3.765625 -20.984375 C 3.765625 -25.753906 4.664062 -29.773438 6.46875 -33.046875 C 8.269531 -36.328125 10.707031 -38.773438 13.78125 -40.390625 C 16.851562 -42.003906 20.304688 -42.8125 24.140625 -42.8125 C 30.085938 -42.8125 34.640625 -41.234375 37.796875 -38.078125 C 40.960938 -34.929688 42.546875 -30.3125 42.546875 -24.21875 C 42.546875 -22.007812 42.46875 -20.296875 42.3125 -19.078125 Z M 32.453125 -25.4375 C 32.347656 -28.632812 31.601562 -30.960938 30.21875 -32.421875 C 28.832031 -33.890625 26.804688 -34.625 24.140625 -34.625 C 18.816406 -34.625 15.679688 -31.5625 14.734375 -25.4375 Z M 32.453125 -25.4375 "/>
            </g>
        </g>
        <g transform="translate(496.051142, 434.624998)">
            <g>
                <path d="M 19.5 0.796875 C 14.78125 0.796875 10.859375 -0.0976562 7.734375 -1.890625 C 4.609375 -3.679688 2.335938 -6.085938 0.921875 -9.109375 L 7.125 -16.640625 L 8.078125 -16.640625 C 9.085938 -14.203125 10.523438 -12.28125 12.390625 -10.875 C 14.265625 -9.46875 16.429688 -8.765625 18.890625 -8.765625 C 21.660156 -8.765625 23.71875 -9.566406 25.0625 -11.171875 C 26.40625 -12.785156 27.078125 -15.410156 27.078125 -19.046875 L 27.078125 -55.6875 L 38.046875 -55.6875 L 38.046875 -18.859375 C 38.046875 -12.128906 36.515625 -7.171875 33.453125 -3.984375 C 30.398438 -0.796875 25.75 0.796875 19.5 0.796875 Z M 19.5 0.796875 "/>
            </g>
        </g>
        <g transform="translate(540.992546, 434.624998)">
            <g>
                <path d="M 19.234375 0.796875 C 14.515625 0.796875 11.03125 -0.488281 8.78125 -3.0625 C 6.53125 -5.644531 5.40625 -9.347656 5.40625 -14.171875 L 5.40625 -42.015625 L 15.953125 -42.015625 L 15.953125 -15.5 C 15.953125 -12.9375 16.503906 -11.0625 17.609375 -9.875 C 18.710938 -8.695312 20.421875 -8.109375 22.734375 -8.109375 C 25.660156 -8.109375 27.9375 -9.066406 29.5625 -10.984375 C 31.1875 -12.898438 32 -15.914062 32 -20.03125 L 32 -42.015625 L 42.546875 -42.015625 L 42.546875 0 L 32.40625 0 L 32.40625 -6.171875 L 31.609375 -6.359375 C 30.265625 -3.953125 28.617188 -2.15625 26.671875 -0.96875 C 24.734375 0.207031 22.253906 0.796875 19.234375 0.796875 Z M 19.234375 0.796875 "/>
            </g>
        </g>
        <g transform="translate(589.5902, 434.624998)">
            <g>
                <path d="M 6.0625 0 L 6.0625 -42.015625 L 16.1875 -42.015625 L 16.1875 -36.375 L 16.984375 -36.21875 C 18.359375 -38.476562 19.960938 -40.140625 21.796875 -41.203125 C 23.640625 -42.273438 26 -42.8125 28.875 -42.8125 C 32.039062 -42.8125 34.585938 -42.179688 36.515625 -40.921875 C 38.453125 -39.660156 39.863281 -37.828125 40.75 -35.421875 L 41.546875 -35.421875 C 42.847656 -37.929688 44.519531 -39.789062 46.5625 -41 C 48.601562 -42.207031 51.148438 -42.8125 54.203125 -42.8125 C 62.910156 -42.8125 67.265625 -37.960938 67.265625 -28.265625 L 67.265625 0 L 56.703125 0 L 56.703125 -26.921875 C 56.703125 -29.390625 56.21875 -31.164062 55.25 -32.25 C 54.289062 -33.34375 52.742188 -33.890625 50.609375 -33.890625 C 44.828125 -33.890625 41.9375 -30.019531 41.9375 -22.28125 L 41.9375 0 L 31.390625 0 L 31.390625 -26.921875 C 31.390625 -29.390625 30.898438 -31.164062 29.921875 -32.25 C 28.941406 -33.34375 27.382812 -33.890625 25.25 -33.890625 C 22.53125 -33.890625 20.410156 -32.984375 18.890625 -31.171875 C 17.367188 -29.359375 16.609375 -26.472656 16.609375 -22.515625 L 16.609375 0 Z M 6.0625 0 "/>
            </g>
        </g>
        <g transform="translate(662.258166, 434.624998)">
            <g>
                <path d="M 6.0625 17.03125 L 6.0625 -42.015625 L 16.609375 -42.015625 L 16.609375 -36.53125 L 17.40625 -36.375 C 18.644531 -38.507812 20.304688 -40.113281 22.390625 -41.1875 C 24.472656 -42.269531 26.910156 -42.8125 29.703125 -42.8125 C 33.078125 -42.8125 36.03125 -42.007812 38.5625 -40.40625 C 41.09375 -38.8125 43.0625 -36.378906 44.46875 -33.109375 C 45.875 -29.847656 46.578125 -25.804688 46.578125 -20.984375 C 46.578125 -16.179688 45.832031 -12.15625 44.34375 -8.90625 C 42.863281 -5.65625 40.800781 -3.222656 38.15625 -1.609375 C 35.519531 -0.00390625 32.472656 0.796875 29.015625 0.796875 C 26.398438 0.796875 24.140625 0.359375 22.234375 -0.515625 C 20.335938 -1.390625 18.726562 -2.753906 17.40625 -4.609375 L 16.609375 -4.453125 L 16.609375 17.03125 Z M 26.09375 -8.15625 C 29.238281 -8.15625 31.625 -9.179688 33.25 -11.234375 C 34.875 -13.296875 35.6875 -16.546875 35.6875 -20.984375 C 35.6875 -25.429688 34.875 -28.6875 33.25 -30.75 C 31.625 -32.820312 29.238281 -33.859375 26.09375 -33.859375 C 23.144531 -33.859375 20.804688 -32.789062 19.078125 -30.65625 C 17.347656 -28.519531 16.484375 -25.296875 16.484375 -20.984375 C 16.484375 -16.691406 17.347656 -13.476562 19.078125 -11.34375 C 20.804688 -9.21875 23.144531 -8.15625 26.09375 -8.15625 Z M 26.09375 -8.15625 "/>
            </g>
        </g>
    </g>
</svg>